<?xml version="1.0" encoding="utf-8" standalone="no"?>
<!DOCTYPE svg PUBLIC "-//W3C//DTD SVG 1.1//EN"
  "http://www.w3.org/Graphics/SVG/1.1/DTD/svg11.dtd">
<!-- Created with matplotlib (https://matplotlib.org/) -->
<svg height="345.6pt" version="1.1" viewBox="0 0 460.8 345.6" width="460.8pt" xmlns="http://www.w3.org/2000/svg" xmlns:xlink="http://www.w3.org/1999/xlink">
 <defs>
  <style type="text/css">
*{stroke-linecap:butt;stroke-linejoin:round;}
  </style>
 </defs>
 <g id="figure_1">
  <g id="patch_1">
   <path d="M 0 345.6 
L 460.8 345.6 
L 460.8 0 
L 0 0 
z
" style="fill:#ffffff;"/>
  </g>
  <g id="axes_1">
   <g id="patch_2">
    <path d="M 57.6 119.740235 
L 414.72 119.740235 
L 414.72 41.472 
L 57.6 41.472 
z
" style="fill:#ffffff;"/>
   </g>
   <g id="matplotlib.axis_1">
    <g id="xtick_1">
     <g id="line2d_1">
      <defs>
       <path d="M 0 0 
L 0 3.5 
" id="m8726361f8c" style="stroke:#000000;stroke-width:0.8;"/>
      </defs>
      <g>
       <use style="stroke:#000000;stroke-width:0.8;" x="57.6" xlink:href="#m8726361f8c" y="119.740235"/>
      </g>
     </g>
    </g>
    <g id="xtick_2">
     <g id="line2d_2">
      <g>
       <use style="stroke:#000000;stroke-width:0.8;" x="117.12" xlink:href="#m8726361f8c" y="119.740235"/>
      </g>
     </g>
    </g>
    <g id="xtick_3">
     <g id="line2d_3">
      <g>
       <use style="stroke:#000000;stroke-width:0.8;" x="176.64" xlink:href="#m8726361f8c" y="119.740235"/>
      </g>
     </g>
    </g>
    <g id="xtick_4">
     <g id="line2d_4">
      <g>
       <use style="stroke:#000000;stroke-width:0.8;" x="236.16" xlink:href="#m8726361f8c" y="119.740235"/>
      </g>
     </g>
    </g>
    <g id="xtick_5">
     <g id="line2d_5">
      <g>
       <use style="stroke:#000000;stroke-width:0.8;" x="295.68" xlink:href="#m8726361f8c" y="119.740235"/>
      </g>
     </g>
    </g>
    <g id="xtick_6">
     <g id="line2d_6">
      <g>
       <use style="stroke:#000000;stroke-width:0.8;" x="355.2" xlink:href="#m8726361f8c" y="119.740235"/>
      </g>
     </g>
    </g>
    <g id="xtick_7">
     <g id="line2d_7">
      <g>
       <use style="stroke:#000000;stroke-width:0.8;" x="414.72" xlink:href="#m8726361f8c" y="119.740235"/>
      </g>
     </g>
    </g>
   </g>
   <g id="matplotlib.axis_2">
    <g id="ytick_1">
     <g id="line2d_8">
      <defs>
       <path d="M 0 0 
L -3.5 0 
" id="m8c4ced38b6" style="stroke:#000000;stroke-width:0.8;"/>
      </defs>
      <g>
       <use style="stroke:#000000;stroke-width:0.8;" x="57.6" xlink:href="#m8c4ced38b6" y="117.462473"/>
      </g>
     </g>
     <g id="text_1">
      <!-- 0.000 -->
      <defs>
       <path d="M 31.78125 66.40625 
Q 24.171875 66.40625 20.328125 58.90625 
Q 16.5 51.421875 16.5 36.375 
Q 16.5 21.390625 20.328125 13.890625 
Q 24.171875 6.390625 31.78125 6.390625 
Q 39.453125 6.390625 43.28125 13.890625 
Q 47.125 21.390625 47.125 36.375 
Q 47.125 51.421875 43.28125 58.90625 
Q 39.453125 66.40625 31.78125 66.40625 
z
M 31.78125 74.21875 
Q 44.046875 74.21875 50.515625 64.515625 
Q 56.984375 54.828125 56.984375 36.375 
Q 56.984375 17.96875 50.515625 8.265625 
Q 44.046875 -1.421875 31.78125 -1.421875 
Q 19.53125 -1.421875 13.0625 8.265625 
Q 6.59375 17.96875 6.59375 36.375 
Q 6.59375 54.828125 13.0625 64.515625 
Q 19.53125 74.21875 31.78125 74.21875 
z
" id="DejaVuSans-48"/>
       <path d="M 10.6875 12.40625 
L 21 12.40625 
L 21 0 
L 10.6875 0 
z
" id="DejaVuSans-46"/>
      </defs>
      <g transform="translate(21.971875 121.261692)scale(0.1 -0.1)">
       <use xlink:href="#DejaVuSans-48"/>
       <use x="63.623047" xlink:href="#DejaVuSans-46"/>
       <use x="95.410156" xlink:href="#DejaVuSans-48"/>
       <use x="159.033203" xlink:href="#DejaVuSans-48"/>
       <use x="222.65625" xlink:href="#DejaVuSans-48"/>
      </g>
     </g>
    </g>
    <g id="ytick_2">
     <g id="line2d_9">
      <g>
       <use style="stroke:#000000;stroke-width:0.8;" x="57.6" xlink:href="#m8c4ced38b6" y="91.229078"/>
      </g>
     </g>
     <g id="text_2">
      <!-- 0.002 -->
      <defs>
       <path d="M 19.1875 8.296875 
L 53.609375 8.296875 
L 53.609375 0 
L 7.328125 0 
L 7.328125 8.296875 
Q 12.9375 14.109375 22.625 23.890625 
Q 32.328125 33.6875 34.8125 36.53125 
Q 39.546875 41.84375 41.421875 45.53125 
Q 43.3125 49.21875 43.3125 52.78125 
Q 43.3125 58.59375 39.234375 62.25 
Q 35.15625 65.921875 28.609375 65.921875 
Q 23.96875 65.921875 18.8125 64.3125 
Q 13.671875 62.703125 7.8125 59.421875 
L 7.8125 69.390625 
Q 13.765625 71.78125 18.9375 73 
Q 24.125 74.21875 28.421875 74.21875 
Q 39.75 74.21875 46.484375 68.546875 
Q 53.21875 62.890625 53.21875 53.421875 
Q 53.21875 48.921875 51.53125 44.890625 
Q 49.859375 40.875 45.40625 35.40625 
Q 44.1875 33.984375 37.640625 27.21875 
Q 31.109375 20.453125 19.1875 8.296875 
z
" id="DejaVuSans-50"/>
      </defs>
      <g transform="translate(21.971875 95.028297)scale(0.1 -0.1)">
       <use xlink:href="#DejaVuSans-48"/>
       <use x="63.623047" xlink:href="#DejaVuSans-46"/>
       <use x="95.410156" xlink:href="#DejaVuSans-48"/>
       <use x="159.033203" xlink:href="#DejaVuSans-48"/>
       <use x="222.65625" xlink:href="#DejaVuSans-50"/>
      </g>
     </g>
    </g>
    <g id="ytick_3">
     <g id="line2d_10">
      <g>
       <use style="stroke:#000000;stroke-width:0.8;" x="57.6" xlink:href="#m8c4ced38b6" y="64.995683"/>
      </g>
     </g>
     <g id="text_3">
      <!-- 0.004 -->
      <defs>
       <path d="M 37.796875 64.3125 
L 12.890625 25.390625 
L 37.796875 25.390625 
z
M 35.203125 72.90625 
L 47.609375 72.90625 
L 47.609375 25.390625 
L 58.015625 25.390625 
L 58.015625 17.1875 
L 47.609375 17.1875 
L 47.609375 0 
L 37.796875 0 
L 37.796875 17.1875 
L 4.890625 17.1875 
L 4.890625 26.703125 
z
" id="DejaVuSans-52"/>
      </defs>
      <g transform="translate(21.971875 68.794902)scale(0.1 -0.1)">
       <use xlink:href="#DejaVuSans-48"/>
       <use x="63.623047" xlink:href="#DejaVuSans-46"/>
       <use x="95.410156" xlink:href="#DejaVuSans-48"/>
       <use x="159.033203" xlink:href="#DejaVuSans-48"/>
       <use x="222.65625" xlink:href="#DejaVuSans-52"/>
      </g>
     </g>
    </g>
   </g>
   <g id="line2d_11">
    <path clip-path="url(#pa3caceefb0)" d="M 57.6 92.178483 
L 63.552 79.612467 
L 69.504 67.349823 
L 75.456 57.228842 
L 81.408 50.185062 
L 87.36 46.334506 
L 93.312 45.298046 
L 99.264 46.500233 
L 105.216 49.390206 
L 111.168 53.500599 
L 117.12 58.388126 
L 123.072 63.634179 
L 129.024 68.918835 
L 134.976 74.034261 
L 140.928 78.826642 
L 146.88 83.160351 
L 152.832 86.92078 
L 158.784 90.023666 
L 164.736 92.433852 
L 170.688 94.191821 
L 176.64 95.430461 
L 182.592 96.370932 
L 188.544 97.270486 
L 194.496 98.319061 
L 200.448 99.56369 
L 206.4 100.933926 
L 212.352 102.32851 
L 218.304 103.667728 
L 224.256 104.884168 
L 230.208 105.913777 
L 236.16 106.734652 
L 242.112 107.402269 
L 248.064 108.013856 
L 254.016 108.638465 
L 259.968 109.292028 
L 265.92 109.958935 
L 271.872 110.611739 
L 277.824 111.213861 
L 283.776 111.723381 
L 289.728 112.105131 
L 295.68 112.343711 
L 301.632 112.462115 
L 307.584 112.540003 
L 313.536 112.69018 
L 319.488 112.984971 
L 325.44 113.401513 
L 331.392 113.844826 
L 337.344 114.219738 
L 343.296 114.483572 
L 349.248 114.65215 
L 355.2 114.774547 
L 361.152 114.897015 
L 367.104 115.035009 
L 373.056 115.171839 
L 379.008 115.281077 
L 384.96 115.348487 
L 390.912 115.381769 
L 396.864 115.417997 
L 402.816 115.525592 
L 408.768 115.77291 
" style="fill:none;stroke:#0000ff;stroke-linecap:square;stroke-width:2;"/>
   </g>
   <g id="line2d_12">
    <path clip-path="url(#pa3caceefb0)" d="M 57.6 89.226661 
L 63.552 80.950786 
L 69.504 72.291314 
L 75.456 63.88804 
L 81.408 56.433838 
L 87.36 50.557429 
L 93.312 46.700873 
L 99.264 45.029647 
L 105.216 45.411177 
L 111.168 47.475653 
L 117.12 50.738697 
L 123.072 54.737719 
L 129.024 59.129604 
L 134.976 63.719693 
L 140.928 68.426906 
L 146.88 73.216872 
L 152.832 78.040874 
L 158.784 82.804895 
L 164.736 87.372292 
L 170.688 91.588897 
L 176.64 95.315617 
L 182.592 98.457682 
L 188.544 100.984762 
L 194.496 102.938511 
L 200.448 104.424869 
L 206.4 105.59067 
L 212.352 106.589116 
L 218.304 107.544125 
L 224.256 108.525679 
L 230.208 109.544776 
L 236.16 110.568419 
L 242.112 111.546292 
L 248.064 112.436053 
L 254.016 113.216208 
L 259.968 113.883287 
L 265.92 114.439149 
L 271.872 114.879287 
L 277.824 115.191059 
L 283.776 115.363336 
L 289.728 115.400939 
L 295.68 115.333928 
L 301.632 115.21492 
L 307.584 115.105071 
L 313.536 115.055865 
L 319.488 115.095505 
L 325.44 115.22493 
L 331.392 115.422605 
L 337.344 115.653435 
L 343.296 115.877505 
L 349.248 116.057201 
L 355.2 116.163577 
L 361.152 116.182588 
L 367.104 116.119898 
L 373.056 116.001614 
L 379.008 115.869131 
L 384.96 115.768748 
L 390.912 115.739267 
L 396.864 115.801835 
L 402.816 115.955382 
L 408.768 116.178813 
" style="fill:none;stroke:#ff0000;stroke-linecap:square;stroke-width:2;"/>
   </g>
   <g id="patch_3">
    <path d="M 57.6 119.740235 
L 57.6 41.472 
" style="fill:none;stroke:#000000;stroke-linecap:square;stroke-linejoin:miter;stroke-width:0.8;"/>
   </g>
   <g id="patch_4">
    <path d="M 414.72 119.740235 
L 414.72 41.472 
" style="fill:none;stroke:#000000;stroke-linecap:square;stroke-linejoin:miter;stroke-width:0.8;"/>
   </g>
   <g id="patch_5">
    <path d="M 57.6 119.740235 
L 414.72 119.740235 
" style="fill:none;stroke:#000000;stroke-linecap:square;stroke-linejoin:miter;stroke-width:0.8;"/>
   </g>
   <g id="patch_6">
    <path d="M 57.6 41.472 
L 414.72 41.472 
" style="fill:none;stroke:#000000;stroke-linecap:square;stroke-linejoin:miter;stroke-width:0.8;"/>
   </g>
  </g>
  <g id="axes_2">
   <g id="patch_7">
    <path d="M 57.6 213.662118 
L 414.72 213.662118 
L 414.72 135.393882 
L 57.6 135.393882 
z
" style="fill:#ffffff;"/>
   </g>
   <g id="patch_8">
    <path clip-path="url(#p7e22f13f2a)" d="M 57.6 213.662118 
L 63.552 213.662118 
L 63.552 180.914659 
L 57.6 180.914659 
z
" style="fill:#0000ff;"/>
   </g>
   <g id="patch_9">
    <path clip-path="url(#p7e22f13f2a)" d="M 63.552 213.662118 
L 69.504 213.662118 
L 69.504 167.526195 
L 63.552 167.526195 
z
" style="fill:#0000ff;"/>
   </g>
   <g id="patch_10">
    <path clip-path="url(#p7e22f13f2a)" d="M 69.504 213.662118 
L 75.456 213.662118 
L 75.456 153.233106 
L 69.504 153.233106 
z
" style="fill:#0000ff;"/>
   </g>
   <g id="patch_11">
    <path clip-path="url(#p7e22f13f2a)" d="M 75.456 213.662118 
L 81.408 213.662118 
L 81.408 148.709976 
L 75.456 148.709976 
z
" style="fill:#0000ff;"/>
   </g>
   <g id="patch_12">
    <path clip-path="url(#p7e22f13f2a)" d="M 81.408 213.662118 
L 87.36 213.662118 
L 87.36 139.120941 
L 81.408 139.120941 
z
" style="fill:#0000ff;"/>
   </g>
   <g id="patch_13">
    <path clip-path="url(#p7e22f13f2a)" d="M 87.36 213.662118 
L 93.312 213.662118 
L 93.312 141.472969 
L 87.36 141.472969 
z
" style="fill:#0000ff;"/>
   </g>
   <g id="patch_14">
    <path clip-path="url(#p7e22f13f2a)" d="M 93.312 213.662118 
L 99.264 213.662118 
L 99.264 143.824996 
L 93.312 143.824996 
z
" style="fill:#0000ff;"/>
   </g>
   <g id="patch_15">
    <path clip-path="url(#p7e22f13f2a)" d="M 99.264 213.662118 
L 105.216 213.662118 
L 105.216 144.186846 
L 99.264 144.186846 
z
" style="fill:#0000ff;"/>
   </g>
   <g id="patch_16">
    <path clip-path="url(#p7e22f13f2a)" d="M 105.216 213.662118 
L 111.168 213.662118 
L 111.168 147.624425 
L 105.216 147.624425 
z
" style="fill:#0000ff;"/>
   </g>
   <g id="patch_17">
    <path clip-path="url(#p7e22f13f2a)" d="M 111.168 213.662118 
L 117.12 213.662118 
L 117.12 153.775881 
L 111.168 153.775881 
z
" style="fill:#0000ff;"/>
   </g>
   <g id="patch_18">
    <path clip-path="url(#p7e22f13f2a)" d="M 117.12 213.662118 
L 123.072 213.662118 
L 123.072 162.641215 
L 117.12 162.641215 
z
" style="fill:#0000ff;"/>
   </g>
   <g id="patch_19">
    <path clip-path="url(#p7e22f13f2a)" d="M 123.072 213.662118 
L 129.024 213.662118 
L 129.024 163.726766 
L 123.072 163.726766 
z
" style="fill:#0000ff;"/>
   </g>
   <g id="patch_20">
    <path clip-path="url(#p7e22f13f2a)" d="M 129.024 213.662118 
L 134.976 213.662118 
L 134.976 168.973597 
L 129.024 168.973597 
z
" style="fill:#0000ff;"/>
   </g>
   <g id="patch_21">
    <path clip-path="url(#p7e22f13f2a)" d="M 134.976 213.662118 
L 140.928 213.662118 
L 140.928 176.210604 
L 134.976 176.210604 
z
" style="fill:#0000ff;"/>
   </g>
   <g id="patch_22">
    <path clip-path="url(#p7e22f13f2a)" d="M 140.928 213.662118 
L 146.88 213.662118 
L 146.88 181.095584 
L 140.928 181.095584 
z
" style="fill:#0000ff;"/>
   </g>
   <g id="patch_23">
    <path clip-path="url(#p7e22f13f2a)" d="M 146.88 213.662118 
L 152.832 213.662118 
L 152.832 184.352238 
L 146.88 184.352238 
z
" style="fill:#0000ff;"/>
   </g>
   <g id="patch_24">
    <path clip-path="url(#p7e22f13f2a)" d="M 152.832 213.662118 
L 158.784 213.662118 
L 158.784 186.52334 
L 152.832 186.52334 
z
" style="fill:#0000ff;"/>
   </g>
   <g id="patch_25">
    <path clip-path="url(#p7e22f13f2a)" d="M 158.784 213.662118 
L 164.736 213.662118 
L 164.736 190.684619 
L 158.784 190.684619 
z
" style="fill:#0000ff;"/>
   </g>
   <g id="patch_26">
    <path clip-path="url(#p7e22f13f2a)" d="M 164.736 213.662118 
L 170.688 213.662118 
L 170.688 192.493871 
L 164.736 192.493871 
z
" style="fill:#0000ff;"/>
   </g>
   <g id="patch_27">
    <path clip-path="url(#p7e22f13f2a)" d="M 170.688 213.662118 
L 176.64 213.662118 
L 176.64 193.579422 
L 170.688 193.579422 
z
" style="fill:#0000ff;"/>
   </g>
   <g id="patch_28">
    <path clip-path="url(#p7e22f13f2a)" d="M 176.64 213.662118 
L 182.592 213.662118 
L 182.592 193.579422 
L 176.64 193.579422 
z
" style="fill:#0000ff;"/>
   </g>
   <g id="patch_29">
    <path clip-path="url(#p7e22f13f2a)" d="M 182.592 213.662118 
L 188.544 213.662118 
L 188.544 195.569599 
L 182.592 195.569599 
z
" style="fill:#0000ff;"/>
   </g>
   <g id="patch_30">
    <path clip-path="url(#p7e22f13f2a)" d="M 188.544 213.662118 
L 194.496 213.662118 
L 194.496 192.132021 
L 188.544 192.132021 
z
" style="fill:#0000ff;"/>
   </g>
   <g id="patch_31">
    <path clip-path="url(#p7e22f13f2a)" d="M 194.496 213.662118 
L 200.448 213.662118 
L 200.448 196.474225 
L 194.496 196.474225 
z
" style="fill:#0000ff;"/>
   </g>
   <g id="patch_32">
    <path clip-path="url(#p7e22f13f2a)" d="M 200.448 213.662118 
L 206.4 213.662118 
L 206.4 197.017001 
L 200.448 197.017001 
z
" style="fill:#0000ff;"/>
   </g>
   <g id="patch_33">
    <path clip-path="url(#p7e22f13f2a)" d="M 206.4 213.662118 
L 212.352 213.662118 
L 212.352 198.283477 
L 206.4 198.283477 
z
" style="fill:#0000ff;"/>
   </g>
   <g id="patch_34">
    <path clip-path="url(#p7e22f13f2a)" d="M 212.352 213.662118 
L 218.304 213.662118 
L 218.304 200.997355 
L 212.352 200.997355 
z
" style="fill:#0000ff;"/>
   </g>
   <g id="patch_35">
    <path clip-path="url(#p7e22f13f2a)" d="M 218.304 213.662118 
L 224.256 213.662118 
L 224.256 200.273654 
L 218.304 200.273654 
z
" style="fill:#0000ff;"/>
   </g>
   <g id="patch_36">
    <path clip-path="url(#p7e22f13f2a)" d="M 224.256 213.662118 
L 230.208 213.662118 
L 230.208 202.806607 
L 224.256 202.806607 
z
" style="fill:#0000ff;"/>
   </g>
   <g id="patch_37">
    <path clip-path="url(#p7e22f13f2a)" d="M 230.208 213.662118 
L 236.16 213.662118 
L 236.16 204.977709 
L 230.208 204.977709 
z
" style="fill:#0000ff;"/>
   </g>
   <g id="patch_38">
    <path clip-path="url(#p7e22f13f2a)" d="M 236.16 213.662118 
L 242.112 213.662118 
L 242.112 202.625681 
L 236.16 202.625681 
z
" style="fill:#0000ff;"/>
   </g>
   <g id="patch_39">
    <path clip-path="url(#p7e22f13f2a)" d="M 242.112 213.662118 
L 248.064 213.662118 
L 248.064 205.158634 
L 242.112 205.158634 
z
" style="fill:#0000ff;"/>
   </g>
   <g id="patch_40">
    <path clip-path="url(#p7e22f13f2a)" d="M 248.064 213.662118 
L 254.016 213.662118 
L 254.016 204.796784 
L 248.064 204.796784 
z
" style="fill:#0000ff;"/>
   </g>
   <g id="patch_41">
    <path clip-path="url(#p7e22f13f2a)" d="M 254.016 213.662118 
L 259.968 213.662118 
L 259.968 206.06326 
L 254.016 206.06326 
z
" style="fill:#0000ff;"/>
   </g>
   <g id="patch_42">
    <path clip-path="url(#p7e22f13f2a)" d="M 259.968 213.662118 
L 265.92 213.662118 
L 265.92 205.520484 
L 259.968 205.520484 
z
" style="fill:#0000ff;"/>
   </g>
   <g id="patch_43">
    <path clip-path="url(#p7e22f13f2a)" d="M 265.92 213.662118 
L 271.872 213.662118 
L 271.872 207.329736 
L 265.92 207.329736 
z
" style="fill:#0000ff;"/>
   </g>
   <g id="patch_44">
    <path clip-path="url(#p7e22f13f2a)" d="M 271.872 213.662118 
L 277.824 213.662118 
L 277.824 206.42511 
L 271.872 206.42511 
z
" style="fill:#0000ff;"/>
   </g>
   <g id="patch_45">
    <path clip-path="url(#p7e22f13f2a)" d="M 277.824 213.662118 
L 283.776 213.662118 
L 283.776 209.319913 
L 277.824 209.319913 
z
" style="fill:#0000ff;"/>
   </g>
   <g id="patch_46">
    <path clip-path="url(#p7e22f13f2a)" d="M 283.776 213.662118 
L 289.728 213.662118 
L 289.728 208.958063 
L 283.776 208.958063 
z
" style="fill:#0000ff;"/>
   </g>
   <g id="patch_47">
    <path clip-path="url(#p7e22f13f2a)" d="M 289.728 213.662118 
L 295.68 213.662118 
L 295.68 208.053437 
L 289.728 208.053437 
z
" style="fill:#0000ff;"/>
   </g>
   <g id="patch_48">
    <path clip-path="url(#p7e22f13f2a)" d="M 295.68 213.662118 
L 301.632 213.662118 
L 301.632 209.500838 
L 295.68 209.500838 
z
" style="fill:#0000ff;"/>
   </g>
   <g id="patch_49">
    <path clip-path="url(#p7e22f13f2a)" d="M 301.632 213.662118 
L 307.584 213.662118 
L 307.584 209.862689 
L 301.632 209.862689 
z
" style="fill:#0000ff;"/>
   </g>
   <g id="patch_50">
    <path clip-path="url(#p7e22f13f2a)" d="M 307.584 213.662118 
L 313.536 213.662118 
L 313.536 208.234362 
L 307.584 208.234362 
z
" style="fill:#0000ff;"/>
   </g>
   <g id="patch_51">
    <path clip-path="url(#p7e22f13f2a)" d="M 313.536 213.662118 
L 319.488 213.662118 
L 319.488 208.415287 
L 313.536 208.415287 
z
" style="fill:#0000ff;"/>
   </g>
   <g id="patch_52">
    <path clip-path="url(#p7e22f13f2a)" d="M 319.488 213.662118 
L 325.44 213.662118 
L 325.44 208.958063 
L 319.488 208.958063 
z
" style="fill:#0000ff;"/>
   </g>
   <g id="patch_53">
    <path clip-path="url(#p7e22f13f2a)" d="M 325.44 213.662118 
L 331.392 213.662118 
L 331.392 210.405464 
L 325.44 210.405464 
z
" style="fill:#0000ff;"/>
   </g>
   <g id="patch_54">
    <path clip-path="url(#p7e22f13f2a)" d="M 331.392 213.662118 
L 337.344 213.662118 
L 337.344 210.94824 
L 331.392 210.94824 
z
" style="fill:#0000ff;"/>
   </g>
   <g id="patch_55">
    <path clip-path="url(#p7e22f13f2a)" d="M 337.344 213.662118 
L 343.296 213.662118 
L 343.296 210.767315 
L 337.344 210.767315 
z
" style="fill:#0000ff;"/>
   </g>
   <g id="patch_56">
    <path clip-path="url(#p7e22f13f2a)" d="M 343.296 213.662118 
L 349.248 213.662118 
L 349.248 211.491015 
L 343.296 211.491015 
z
" style="fill:#0000ff;"/>
   </g>
   <g id="patch_57">
    <path clip-path="url(#p7e22f13f2a)" d="M 349.248 213.662118 
L 355.2 213.662118 
L 355.2 210.586389 
L 349.248 210.586389 
z
" style="fill:#0000ff;"/>
   </g>
   <g id="patch_58">
    <path clip-path="url(#p7e22f13f2a)" d="M 355.2 213.662118 
L 361.152 213.662118 
L 361.152 211.852866 
L 355.2 211.852866 
z
" style="fill:#0000ff;"/>
   </g>
   <g id="patch_59">
    <path clip-path="url(#p7e22f13f2a)" d="M 361.152 213.662118 
L 367.104 213.662118 
L 367.104 210.767315 
L 361.152 210.767315 
z
" style="fill:#0000ff;"/>
   </g>
   <g id="patch_60">
    <path clip-path="url(#p7e22f13f2a)" d="M 367.104 213.662118 
L 373.056 213.662118 
L 373.056 211.852866 
L 367.104 211.852866 
z
" style="fill:#0000ff;"/>
   </g>
   <g id="patch_61">
    <path clip-path="url(#p7e22f13f2a)" d="M 373.056 213.662118 
L 379.008 213.662118 
L 379.008 211.31009 
L 373.056 211.31009 
z
" style="fill:#0000ff;"/>
   </g>
   <g id="patch_62">
    <path clip-path="url(#p7e22f13f2a)" d="M 379.008 213.662118 
L 384.96 213.662118 
L 384.96 211.491015 
L 379.008 211.491015 
z
" style="fill:#0000ff;"/>
   </g>
   <g id="patch_63">
    <path clip-path="url(#p7e22f13f2a)" d="M 384.96 213.662118 
L 390.912 213.662118 
L 390.912 212.033791 
L 384.96 212.033791 
z
" style="fill:#0000ff;"/>
   </g>
   <g id="patch_64">
    <path clip-path="url(#p7e22f13f2a)" d="M 390.912 213.662118 
L 396.864 213.662118 
L 396.864 211.852866 
L 390.912 211.852866 
z
" style="fill:#0000ff;"/>
   </g>
   <g id="patch_65">
    <path clip-path="url(#p7e22f13f2a)" d="M 396.864 213.662118 
L 402.816 213.662118 
L 402.816 211.671941 
L 396.864 211.671941 
z
" style="fill:#0000ff;"/>
   </g>
   <g id="patch_66">
    <path clip-path="url(#p7e22f13f2a)" d="M 402.816 213.662118 
L 408.768 213.662118 
L 408.768 210.94824 
L 402.816 210.94824 
z
" style="fill:#0000ff;"/>
   </g>
   <g id="matplotlib.axis_3">
    <g id="xtick_8">
     <g id="line2d_13">
      <g>
       <use style="stroke:#000000;stroke-width:0.8;" x="57.6" xlink:href="#m8726361f8c" y="213.662118"/>
      </g>
     </g>
    </g>
    <g id="xtick_9">
     <g id="line2d_14">
      <g>
       <use style="stroke:#000000;stroke-width:0.8;" x="117.12" xlink:href="#m8726361f8c" y="213.662118"/>
      </g>
     </g>
    </g>
    <g id="xtick_10">
     <g id="line2d_15">
      <g>
       <use style="stroke:#000000;stroke-width:0.8;" x="176.64" xlink:href="#m8726361f8c" y="213.662118"/>
      </g>
     </g>
    </g>
    <g id="xtick_11">
     <g id="line2d_16">
      <g>
       <use style="stroke:#000000;stroke-width:0.8;" x="236.16" xlink:href="#m8726361f8c" y="213.662118"/>
      </g>
     </g>
    </g>
    <g id="xtick_12">
     <g id="line2d_17">
      <g>
       <use style="stroke:#000000;stroke-width:0.8;" x="295.68" xlink:href="#m8726361f8c" y="213.662118"/>
      </g>
     </g>
    </g>
    <g id="xtick_13">
     <g id="line2d_18">
      <g>
       <use style="stroke:#000000;stroke-width:0.8;" x="355.2" xlink:href="#m8726361f8c" y="213.662118"/>
      </g>
     </g>
    </g>
    <g id="xtick_14">
     <g id="line2d_19">
      <g>
       <use style="stroke:#000000;stroke-width:0.8;" x="414.72" xlink:href="#m8726361f8c" y="213.662118"/>
      </g>
     </g>
    </g>
   </g>
   <g id="matplotlib.axis_4">
    <g id="ytick_4">
     <g id="line2d_20">
      <g>
       <use style="stroke:#000000;stroke-width:0.8;" x="57.6" xlink:href="#m8c4ced38b6" y="213.662118"/>
      </g>
     </g>
     <g id="text_4">
      <!-- 0 -->
      <g transform="translate(44.2375 217.461336)scale(0.1 -0.1)">
       <use xlink:href="#DejaVuSans-48"/>
      </g>
     </g>
    </g>
    <g id="ytick_5">
     <g id="line2d_21">
      <g>
       <use style="stroke:#000000;stroke-width:0.8;" x="57.6" xlink:href="#m8c4ced38b6" y="177.477081"/>
      </g>
     </g>
     <g id="text_5">
      <!-- 200 -->
      <g transform="translate(31.5125 181.276299)scale(0.1 -0.1)">
       <use xlink:href="#DejaVuSans-50"/>
       <use x="63.623047" xlink:href="#DejaVuSans-48"/>
       <use x="127.246094" xlink:href="#DejaVuSans-48"/>
      </g>
     </g>
    </g>
    <g id="ytick_6">
     <g id="line2d_22">
      <g>
       <use style="stroke:#000000;stroke-width:0.8;" x="57.6" xlink:href="#m8c4ced38b6" y="141.292043"/>
      </g>
     </g>
     <g id="text_6">
      <!-- 400 -->
      <g transform="translate(31.5125 145.091262)scale(0.1 -0.1)">
       <use xlink:href="#DejaVuSans-52"/>
       <use x="63.623047" xlink:href="#DejaVuSans-48"/>
       <use x="127.246094" xlink:href="#DejaVuSans-48"/>
      </g>
     </g>
    </g>
   </g>
   <g id="patch_67">
    <path d="M 57.6 213.662118 
L 57.6 135.393882 
" style="fill:none;stroke:#000000;stroke-linecap:square;stroke-linejoin:miter;stroke-width:0.8;"/>
   </g>
   <g id="patch_68">
    <path d="M 414.72 213.662118 
L 414.72 135.393882 
" style="fill:none;stroke:#000000;stroke-linecap:square;stroke-linejoin:miter;stroke-width:0.8;"/>
   </g>
   <g id="patch_69">
    <path d="M 57.6 213.662118 
L 414.72 213.662118 
" style="fill:none;stroke:#000000;stroke-linecap:square;stroke-linejoin:miter;stroke-width:0.8;"/>
   </g>
   <g id="patch_70">
    <path d="M 57.6 135.393882 
L 414.72 135.393882 
" style="fill:none;stroke:#000000;stroke-linecap:square;stroke-linejoin:miter;stroke-width:0.8;"/>
   </g>
  </g>
  <g id="axes_3">
   <g id="patch_71">
    <path d="M 57.6 307.584 
L 414.72 307.584 
L 414.72 229.315765 
L 57.6 229.315765 
z
" style="fill:#ffffff;"/>
   </g>
   <g id="patch_72">
    <path clip-path="url(#p1f3f641916)" d="M 57.6 307.584 
L 63.552 307.584 
L 63.552 280.962151 
L 57.6 280.962151 
z
" style="fill:#ff0000;"/>
   </g>
   <g id="patch_73">
    <path clip-path="url(#p1f3f641916)" d="M 63.552 307.584 
L 69.504 307.584 
L 69.504 286.286521 
L 63.552 286.286521 
z
" style="fill:#ff0000;"/>
   </g>
   <g id="patch_74">
    <path clip-path="url(#p1f3f641916)" d="M 69.504 307.584 
L 75.456 307.584 
L 75.456 275.637782 
L 69.504 275.637782 
z
" style="fill:#ff0000;"/>
   </g>
   <g id="patch_75">
    <path clip-path="url(#p1f3f641916)" d="M 75.456 307.584 
L 81.408 307.584 
L 81.408 264.989042 
L 75.456 264.989042 
z
" style="fill:#ff0000;"/>
   </g>
   <g id="patch_76">
    <path clip-path="url(#p1f3f641916)" d="M 81.408 307.584 
L 87.36 307.584 
L 87.36 264.989042 
L 81.408 264.989042 
z
" style="fill:#ff0000;"/>
   </g>
   <g id="patch_77">
    <path clip-path="url(#p1f3f641916)" d="M 87.36 307.584 
L 93.312 307.584 
L 93.312 249.015933 
L 87.36 249.015933 
z
" style="fill:#ff0000;"/>
   </g>
   <g id="patch_78">
    <path clip-path="url(#p1f3f641916)" d="M 93.312 307.584 
L 99.264 307.584 
L 99.264 233.042824 
L 93.312 233.042824 
z
" style="fill:#ff0000;"/>
   </g>
   <g id="patch_79">
    <path clip-path="url(#p1f3f641916)" d="M 99.264 307.584 
L 105.216 307.584 
L 105.216 249.015933 
L 99.264 249.015933 
z
" style="fill:#ff0000;"/>
   </g>
   <g id="patch_80">
    <path clip-path="url(#p1f3f641916)" d="M 105.216 307.584 
L 111.168 307.584 
L 111.168 238.367193 
L 105.216 238.367193 
z
" style="fill:#ff0000;"/>
   </g>
   <g id="patch_81">
    <path clip-path="url(#p1f3f641916)" d="M 111.168 307.584 
L 117.12 307.584 
L 117.12 286.286521 
L 111.168 286.286521 
z
" style="fill:#ff0000;"/>
   </g>
   <g id="patch_82">
    <path clip-path="url(#p1f3f641916)" d="M 117.12 307.584 
L 123.072 307.584 
L 123.072 254.340303 
L 117.12 254.340303 
z
" style="fill:#ff0000;"/>
   </g>
   <g id="patch_83">
    <path clip-path="url(#p1f3f641916)" d="M 123.072 307.584 
L 129.024 307.584 
L 129.024 286.286521 
L 123.072 286.286521 
z
" style="fill:#ff0000;"/>
   </g>
   <g id="patch_84">
    <path clip-path="url(#p1f3f641916)" d="M 129.024 307.584 
L 134.976 307.584 
L 134.976 254.340303 
L 129.024 254.340303 
z
" style="fill:#ff0000;"/>
   </g>
   <g id="patch_85">
    <path clip-path="url(#p1f3f641916)" d="M 134.976 307.584 
L 140.928 307.584 
L 140.928 280.962151 
L 134.976 280.962151 
z
" style="fill:#ff0000;"/>
   </g>
   <g id="patch_86">
    <path clip-path="url(#p1f3f641916)" d="M 140.928 307.584 
L 146.88 307.584 
L 146.88 270.313412 
L 140.928 270.313412 
z
" style="fill:#ff0000;"/>
   </g>
   <g id="patch_87">
    <path clip-path="url(#p1f3f641916)" d="M 146.88 307.584 
L 152.832 307.584 
L 152.832 270.313412 
L 146.88 270.313412 
z
" style="fill:#ff0000;"/>
   </g>
   <g id="patch_88">
    <path clip-path="url(#p1f3f641916)" d="M 152.832 307.584 
L 158.784 307.584 
L 158.784 291.610891 
L 152.832 291.610891 
z
" style="fill:#ff0000;"/>
   </g>
   <g id="patch_89">
    <path clip-path="url(#p1f3f641916)" d="M 158.784 307.584 
L 164.736 307.584 
L 164.736 302.25963 
L 158.784 302.25963 
z
" style="fill:#ff0000;"/>
   </g>
   <g id="patch_90">
    <path clip-path="url(#p1f3f641916)" d="M 164.736 307.584 
L 170.688 307.584 
L 170.688 280.962151 
L 164.736 280.962151 
z
" style="fill:#ff0000;"/>
   </g>
   <g id="patch_91">
    <path clip-path="url(#p1f3f641916)" d="M 170.688 307.584 
L 176.64 307.584 
L 176.64 291.610891 
L 170.688 291.610891 
z
" style="fill:#ff0000;"/>
   </g>
   <g id="patch_92">
    <path clip-path="url(#p1f3f641916)" d="M 176.64 307.584 
L 182.592 307.584 
L 182.592 302.25963 
L 176.64 302.25963 
z
" style="fill:#ff0000;"/>
   </g>
   <g id="patch_93">
    <path clip-path="url(#p1f3f641916)" d="M 182.592 307.584 
L 188.544 307.584 
L 188.544 296.935261 
L 182.592 296.935261 
z
" style="fill:#ff0000;"/>
   </g>
   <g id="patch_94">
    <path clip-path="url(#p1f3f641916)" d="M 188.544 307.584 
L 194.496 307.584 
L 194.496 307.584 
L 188.544 307.584 
z
" style="fill:#ff0000;"/>
   </g>
   <g id="patch_95">
    <path clip-path="url(#p1f3f641916)" d="M 194.496 307.584 
L 200.448 307.584 
L 200.448 296.935261 
L 194.496 296.935261 
z
" style="fill:#ff0000;"/>
   </g>
   <g id="patch_96">
    <path clip-path="url(#p1f3f641916)" d="M 200.448 307.584 
L 206.4 307.584 
L 206.4 302.25963 
L 200.448 302.25963 
z
" style="fill:#ff0000;"/>
   </g>
   <g id="patch_97">
    <path clip-path="url(#p1f3f641916)" d="M 206.4 307.584 
L 212.352 307.584 
L 212.352 296.935261 
L 206.4 296.935261 
z
" style="fill:#ff0000;"/>
   </g>
   <g id="patch_98">
    <path clip-path="url(#p1f3f641916)" d="M 212.352 307.584 
L 218.304 307.584 
L 218.304 296.935261 
L 212.352 296.935261 
z
" style="fill:#ff0000;"/>
   </g>
   <g id="patch_99">
    <path clip-path="url(#p1f3f641916)" d="M 218.304 307.584 
L 224.256 307.584 
L 224.256 302.25963 
L 218.304 302.25963 
z
" style="fill:#ff0000;"/>
   </g>
   <g id="patch_100">
    <path clip-path="url(#p1f3f641916)" d="M 224.256 307.584 
L 230.208 307.584 
L 230.208 302.25963 
L 224.256 302.25963 
z
" style="fill:#ff0000;"/>
   </g>
   <g id="patch_101">
    <path clip-path="url(#p1f3f641916)" d="M 230.208 307.584 
L 236.16 307.584 
L 236.16 302.25963 
L 230.208 302.25963 
z
" style="fill:#ff0000;"/>
   </g>
   <g id="patch_102">
    <path clip-path="url(#p1f3f641916)" d="M 236.16 307.584 
L 242.112 307.584 
L 242.112 302.25963 
L 236.16 302.25963 
z
" style="fill:#ff0000;"/>
   </g>
   <g id="patch_103">
    <path clip-path="url(#p1f3f641916)" d="M 242.112 307.584 
L 248.064 307.584 
L 248.064 307.584 
L 242.112 307.584 
z
" style="fill:#ff0000;"/>
   </g>
   <g id="patch_104">
    <path clip-path="url(#p1f3f641916)" d="M 248.064 307.584 
L 254.016 307.584 
L 254.016 307.584 
L 248.064 307.584 
z
" style="fill:#ff0000;"/>
   </g>
   <g id="patch_105">
    <path clip-path="url(#p1f3f641916)" d="M 254.016 307.584 
L 259.968 307.584 
L 259.968 307.584 
L 254.016 307.584 
z
" style="fill:#ff0000;"/>
   </g>
   <g id="patch_106">
    <path clip-path="url(#p1f3f641916)" d="M 259.968 307.584 
L 265.92 307.584 
L 265.92 296.935261 
L 259.968 296.935261 
z
" style="fill:#ff0000;"/>
   </g>
   <g id="patch_107">
    <path clip-path="url(#p1f3f641916)" d="M 265.92 307.584 
L 271.872 307.584 
L 271.872 307.584 
L 265.92 307.584 
z
" style="fill:#ff0000;"/>
   </g>
   <g id="patch_108">
    <path clip-path="url(#p1f3f641916)" d="M 271.872 307.584 
L 277.824 307.584 
L 277.824 307.584 
L 271.872 307.584 
z
" style="fill:#ff0000;"/>
   </g>
   <g id="patch_109">
    <path clip-path="url(#p1f3f641916)" d="M 277.824 307.584 
L 283.776 307.584 
L 283.776 307.584 
L 277.824 307.584 
z
" style="fill:#ff0000;"/>
   </g>
   <g id="patch_110">
    <path clip-path="url(#p1f3f641916)" d="M 283.776 307.584 
L 289.728 307.584 
L 289.728 307.584 
L 283.776 307.584 
z
" style="fill:#ff0000;"/>
   </g>
   <g id="patch_111">
    <path clip-path="url(#p1f3f641916)" d="M 289.728 307.584 
L 295.68 307.584 
L 295.68 307.584 
L 289.728 307.584 
z
" style="fill:#ff0000;"/>
   </g>
   <g id="patch_112">
    <path clip-path="url(#p1f3f641916)" d="M 295.68 307.584 
L 301.632 307.584 
L 301.632 307.584 
L 295.68 307.584 
z
" style="fill:#ff0000;"/>
   </g>
   <g id="patch_113">
    <path clip-path="url(#p1f3f641916)" d="M 301.632 307.584 
L 307.584 307.584 
L 307.584 307.584 
L 301.632 307.584 
z
" style="fill:#ff0000;"/>
   </g>
   <g id="patch_114">
    <path clip-path="url(#p1f3f641916)" d="M 307.584 307.584 
L 313.536 307.584 
L 313.536 296.935261 
L 307.584 296.935261 
z
" style="fill:#ff0000;"/>
   </g>
   <g id="patch_115">
    <path clip-path="url(#p1f3f641916)" d="M 313.536 307.584 
L 319.488 307.584 
L 319.488 307.584 
L 313.536 307.584 
z
" style="fill:#ff0000;"/>
   </g>
   <g id="patch_116">
    <path clip-path="url(#p1f3f641916)" d="M 319.488 307.584 
L 325.44 307.584 
L 325.44 307.584 
L 319.488 307.584 
z
" style="fill:#ff0000;"/>
   </g>
   <g id="patch_117">
    <path clip-path="url(#p1f3f641916)" d="M 325.44 307.584 
L 331.392 307.584 
L 331.392 307.584 
L 325.44 307.584 
z
" style="fill:#ff0000;"/>
   </g>
   <g id="patch_118">
    <path clip-path="url(#p1f3f641916)" d="M 331.392 307.584 
L 337.344 307.584 
L 337.344 302.25963 
L 331.392 302.25963 
z
" style="fill:#ff0000;"/>
   </g>
   <g id="patch_119">
    <path clip-path="url(#p1f3f641916)" d="M 337.344 307.584 
L 343.296 307.584 
L 343.296 307.584 
L 337.344 307.584 
z
" style="fill:#ff0000;"/>
   </g>
   <g id="patch_120">
    <path clip-path="url(#p1f3f641916)" d="M 343.296 307.584 
L 349.248 307.584 
L 349.248 307.584 
L 343.296 307.584 
z
" style="fill:#ff0000;"/>
   </g>
   <g id="patch_121">
    <path clip-path="url(#p1f3f641916)" d="M 349.248 307.584 
L 355.2 307.584 
L 355.2 307.584 
L 349.248 307.584 
z
" style="fill:#ff0000;"/>
   </g>
   <g id="patch_122">
    <path clip-path="url(#p1f3f641916)" d="M 355.2 307.584 
L 361.152 307.584 
L 361.152 307.584 
L 355.2 307.584 
z
" style="fill:#ff0000;"/>
   </g>
   <g id="patch_123">
    <path clip-path="url(#p1f3f641916)" d="M 361.152 307.584 
L 367.104 307.584 
L 367.104 307.584 
L 361.152 307.584 
z
" style="fill:#ff0000;"/>
   </g>
   <g id="patch_124">
    <path clip-path="url(#p1f3f641916)" d="M 367.104 307.584 
L 373.056 307.584 
L 373.056 307.584 
L 367.104 307.584 
z
" style="fill:#ff0000;"/>
   </g>
   <g id="patch_125">
    <path clip-path="url(#p1f3f641916)" d="M 373.056 307.584 
L 379.008 307.584 
L 379.008 307.584 
L 373.056 307.584 
z
" style="fill:#ff0000;"/>
   </g>
   <g id="patch_126">
    <path clip-path="url(#p1f3f641916)" d="M 379.008 307.584 
L 384.96 307.584 
L 384.96 302.25963 
L 379.008 302.25963 
z
" style="fill:#ff0000;"/>
   </g>
   <g id="patch_127">
    <path clip-path="url(#p1f3f641916)" d="M 384.96 307.584 
L 390.912 307.584 
L 390.912 307.584 
L 384.96 307.584 
z
" style="fill:#ff0000;"/>
   </g>
   <g id="patch_128">
    <path clip-path="url(#p1f3f641916)" d="M 390.912 307.584 
L 396.864 307.584 
L 396.864 307.584 
L 390.912 307.584 
z
" style="fill:#ff0000;"/>
   </g>
   <g id="patch_129">
    <path clip-path="url(#p1f3f641916)" d="M 396.864 307.584 
L 402.816 307.584 
L 402.816 302.25963 
L 396.864 302.25963 
z
" style="fill:#ff0000;"/>
   </g>
   <g id="patch_130">
    <path clip-path="url(#p1f3f641916)" d="M 402.816 307.584 
L 408.768 307.584 
L 408.768 307.584 
L 402.816 307.584 
z
" style="fill:#ff0000;"/>
   </g>
   <g id="matplotlib.axis_5">
    <g id="xtick_15">
     <g id="line2d_23">
      <g>
       <use style="stroke:#000000;stroke-width:0.8;" x="57.6" xlink:href="#m8726361f8c" y="307.584"/>
      </g>
     </g>
     <g id="text_7">
      <!-- 0 -->
      <g transform="translate(54.41875 322.182437)scale(0.1 -0.1)">
       <use xlink:href="#DejaVuSans-48"/>
      </g>
     </g>
    </g>
    <g id="xtick_16">
     <g id="line2d_24">
      <g>
       <use style="stroke:#000000;stroke-width:0.8;" x="117.12" xlink:href="#m8726361f8c" y="307.584"/>
      </g>
     </g>
     <g id="text_8">
      <!-- 100 -->
      <defs>
       <path d="M 12.40625 8.296875 
L 28.515625 8.296875 
L 28.515625 63.921875 
L 10.984375 60.40625 
L 10.984375 69.390625 
L 28.421875 72.90625 
L 38.28125 72.90625 
L 38.28125 8.296875 
L 54.390625 8.296875 
L 54.390625 0 
L 12.40625 0 
z
" id="DejaVuSans-49"/>
      </defs>
      <g transform="translate(107.57625 322.182437)scale(0.1 -0.1)">
       <use xlink:href="#DejaVuSans-49"/>
       <use x="63.623047" xlink:href="#DejaVuSans-48"/>
       <use x="127.246094" xlink:href="#DejaVuSans-48"/>
      </g>
     </g>
    </g>
    <g id="xtick_17">
     <g id="line2d_25">
      <g>
       <use style="stroke:#000000;stroke-width:0.8;" x="176.64" xlink:href="#m8726361f8c" y="307.584"/>
      </g>
     </g>
     <g id="text_9">
      <!-- 200 -->
      <g transform="translate(167.09625 322.182437)scale(0.1 -0.1)">
       <use xlink:href="#DejaVuSans-50"/>
       <use x="63.623047" xlink:href="#DejaVuSans-48"/>
       <use x="127.246094" xlink:href="#DejaVuSans-48"/>
      </g>
     </g>
    </g>
    <g id="xtick_18">
     <g id="line2d_26">
      <g>
       <use style="stroke:#000000;stroke-width:0.8;" x="236.16" xlink:href="#m8726361f8c" y="307.584"/>
      </g>
     </g>
     <g id="text_10">
      <!-- 300 -->
      <defs>
       <path d="M 40.578125 39.3125 
Q 47.65625 37.796875 51.625 33 
Q 55.609375 28.21875 55.609375 21.1875 
Q 55.609375 10.40625 48.1875 4.484375 
Q 40.765625 -1.421875 27.09375 -1.421875 
Q 22.515625 -1.421875 17.65625 -0.515625 
Q 12.796875 0.390625 7.625 2.203125 
L 7.625 11.71875 
Q 11.71875 9.328125 16.59375 8.109375 
Q 21.484375 6.890625 26.8125 6.890625 
Q 36.078125 6.890625 40.9375 10.546875 
Q 45.796875 14.203125 45.796875 21.1875 
Q 45.796875 27.640625 41.28125 31.265625 
Q 36.765625 34.90625 28.71875 34.90625 
L 20.21875 34.90625 
L 20.21875 43.015625 
L 29.109375 43.015625 
Q 36.375 43.015625 40.234375 45.921875 
Q 44.09375 48.828125 44.09375 54.296875 
Q 44.09375 59.90625 40.109375 62.90625 
Q 36.140625 65.921875 28.71875 65.921875 
Q 24.65625 65.921875 20.015625 65.03125 
Q 15.375 64.15625 9.8125 62.3125 
L 9.8125 71.09375 
Q 15.4375 72.65625 20.34375 73.4375 
Q 25.25 74.21875 29.59375 74.21875 
Q 40.828125 74.21875 47.359375 69.109375 
Q 53.90625 64.015625 53.90625 55.328125 
Q 53.90625 49.265625 50.4375 45.09375 
Q 46.96875 40.921875 40.578125 39.3125 
z
" id="DejaVuSans-51"/>
      </defs>
      <g transform="translate(226.61625 322.182437)scale(0.1 -0.1)">
       <use xlink:href="#DejaVuSans-51"/>
       <use x="63.623047" xlink:href="#DejaVuSans-48"/>
       <use x="127.246094" xlink:href="#DejaVuSans-48"/>
      </g>
     </g>
    </g>
    <g id="xtick_19">
     <g id="line2d_27">
      <g>
       <use style="stroke:#000000;stroke-width:0.8;" x="295.68" xlink:href="#m8726361f8c" y="307.584"/>
      </g>
     </g>
     <g id="text_11">
      <!-- 400 -->
      <g transform="translate(286.13625 322.182437)scale(0.1 -0.1)">
       <use xlink:href="#DejaVuSans-52"/>
       <use x="63.623047" xlink:href="#DejaVuSans-48"/>
       <use x="127.246094" xlink:href="#DejaVuSans-48"/>
      </g>
     </g>
    </g>
    <g id="xtick_20">
     <g id="line2d_28">
      <g>
       <use style="stroke:#000000;stroke-width:0.8;" x="355.2" xlink:href="#m8726361f8c" y="307.584"/>
      </g>
     </g>
     <g id="text_12">
      <!-- 500 -->
      <defs>
       <path d="M 10.796875 72.90625 
L 49.515625 72.90625 
L 49.515625 64.59375 
L 19.828125 64.59375 
L 19.828125 46.734375 
Q 21.96875 47.46875 24.109375 47.828125 
Q 26.265625 48.1875 28.421875 48.1875 
Q 40.625 48.1875 47.75 41.5 
Q 54.890625 34.8125 54.890625 23.390625 
Q 54.890625 11.625 47.5625 5.09375 
Q 40.234375 -1.421875 26.90625 -1.421875 
Q 22.3125 -1.421875 17.546875 -0.640625 
Q 12.796875 0.140625 7.71875 1.703125 
L 7.71875 11.625 
Q 12.109375 9.234375 16.796875 8.0625 
Q 21.484375 6.890625 26.703125 6.890625 
Q 35.15625 6.890625 40.078125 11.328125 
Q 45.015625 15.765625 45.015625 23.390625 
Q 45.015625 31 40.078125 35.4375 
Q 35.15625 39.890625 26.703125 39.890625 
Q 22.75 39.890625 18.8125 39.015625 
Q 14.890625 38.140625 10.796875 36.28125 
z
" id="DejaVuSans-53"/>
      </defs>
      <g transform="translate(345.65625 322.182437)scale(0.1 -0.1)">
       <use xlink:href="#DejaVuSans-53"/>
       <use x="63.623047" xlink:href="#DejaVuSans-48"/>
       <use x="127.246094" xlink:href="#DejaVuSans-48"/>
      </g>
     </g>
    </g>
    <g id="xtick_21">
     <g id="line2d_29">
      <g>
       <use style="stroke:#000000;stroke-width:0.8;" x="414.72" xlink:href="#m8726361f8c" y="307.584"/>
      </g>
     </g>
     <g id="text_13">
      <!-- 600 -->
      <defs>
       <path d="M 33.015625 40.375 
Q 26.375 40.375 22.484375 35.828125 
Q 18.609375 31.296875 18.609375 23.390625 
Q 18.609375 15.53125 22.484375 10.953125 
Q 26.375 6.390625 33.015625 6.390625 
Q 39.65625 6.390625 43.53125 10.953125 
Q 47.40625 15.53125 47.40625 23.390625 
Q 47.40625 31.296875 43.53125 35.828125 
Q 39.65625 40.375 33.015625 40.375 
z
M 52.59375 71.296875 
L 52.59375 62.3125 
Q 48.875 64.0625 45.09375 64.984375 
Q 41.3125 65.921875 37.59375 65.921875 
Q 27.828125 65.921875 22.671875 59.328125 
Q 17.53125 52.734375 16.796875 39.40625 
Q 19.671875 43.65625 24.015625 45.921875 
Q 28.375 48.1875 33.59375 48.1875 
Q 44.578125 48.1875 50.953125 41.515625 
Q 57.328125 34.859375 57.328125 23.390625 
Q 57.328125 12.15625 50.6875 5.359375 
Q 44.046875 -1.421875 33.015625 -1.421875 
Q 20.359375 -1.421875 13.671875 8.265625 
Q 6.984375 17.96875 6.984375 36.375 
Q 6.984375 53.65625 15.1875 63.9375 
Q 23.390625 74.21875 37.203125 74.21875 
Q 40.921875 74.21875 44.703125 73.484375 
Q 48.484375 72.75 52.59375 71.296875 
z
" id="DejaVuSans-54"/>
      </defs>
      <g transform="translate(405.17625 322.182437)scale(0.1 -0.1)">
       <use xlink:href="#DejaVuSans-54"/>
       <use x="63.623047" xlink:href="#DejaVuSans-48"/>
       <use x="127.246094" xlink:href="#DejaVuSans-48"/>
      </g>
     </g>
    </g>
    <g id="text_14">
     <!-- Length (bp) -->
     <defs>
      <path d="M 9.8125 72.90625 
L 19.671875 72.90625 
L 19.671875 8.296875 
L 55.171875 8.296875 
L 55.171875 0 
L 9.8125 0 
z
" id="DejaVuSans-76"/>
      <path d="M 56.203125 29.59375 
L 56.203125 25.203125 
L 14.890625 25.203125 
Q 15.484375 15.921875 20.484375 11.0625 
Q 25.484375 6.203125 34.421875 6.203125 
Q 39.59375 6.203125 44.453125 7.46875 
Q 49.3125 8.734375 54.109375 11.28125 
L 54.109375 2.78125 
Q 49.265625 0.734375 44.1875 -0.34375 
Q 39.109375 -1.421875 33.890625 -1.421875 
Q 20.796875 -1.421875 13.15625 6.1875 
Q 5.515625 13.8125 5.515625 26.8125 
Q 5.515625 40.234375 12.765625 48.109375 
Q 20.015625 56 32.328125 56 
Q 43.359375 56 49.78125 48.890625 
Q 56.203125 41.796875 56.203125 29.59375 
z
M 47.21875 32.234375 
Q 47.125 39.59375 43.09375 43.984375 
Q 39.0625 48.390625 32.421875 48.390625 
Q 24.90625 48.390625 20.390625 44.140625 
Q 15.875 39.890625 15.1875 32.171875 
z
" id="DejaVuSans-101"/>
      <path d="M 54.890625 33.015625 
L 54.890625 0 
L 45.90625 0 
L 45.90625 32.71875 
Q 45.90625 40.484375 42.875 44.328125 
Q 39.84375 48.1875 33.796875 48.1875 
Q 26.515625 48.1875 22.3125 43.546875 
Q 18.109375 38.921875 18.109375 30.90625 
L 18.109375 0 
L 9.078125 0 
L 9.078125 54.6875 
L 18.109375 54.6875 
L 18.109375 46.1875 
Q 21.34375 51.125 25.703125 53.5625 
Q 30.078125 56 35.796875 56 
Q 45.21875 56 50.046875 50.171875 
Q 54.890625 44.34375 54.890625 33.015625 
z
" id="DejaVuSans-110"/>
      <path d="M 45.40625 27.984375 
Q 45.40625 37.75 41.375 43.109375 
Q 37.359375 48.484375 30.078125 48.484375 
Q 22.859375 48.484375 18.828125 43.109375 
Q 14.796875 37.75 14.796875 27.984375 
Q 14.796875 18.265625 18.828125 12.890625 
Q 22.859375 7.515625 30.078125 7.515625 
Q 37.359375 7.515625 41.375 12.890625 
Q 45.40625 18.265625 45.40625 27.984375 
z
M 54.390625 6.78125 
Q 54.390625 -7.171875 48.1875 -13.984375 
Q 42 -20.796875 29.203125 -20.796875 
Q 24.46875 -20.796875 20.265625 -20.09375 
Q 16.0625 -19.390625 12.109375 -17.921875 
L 12.109375 -9.1875 
Q 16.0625 -11.328125 19.921875 -12.34375 
Q 23.78125 -13.375 27.78125 -13.375 
Q 36.625 -13.375 41.015625 -8.765625 
Q 45.40625 -4.15625 45.40625 5.171875 
L 45.40625 9.625 
Q 42.625 4.78125 38.28125 2.390625 
Q 33.9375 0 27.875 0 
Q 17.828125 0 11.671875 7.65625 
Q 5.515625 15.328125 5.515625 27.984375 
Q 5.515625 40.671875 11.671875 48.328125 
Q 17.828125 56 27.875 56 
Q 33.9375 56 38.28125 53.609375 
Q 42.625 51.21875 45.40625 46.390625 
L 45.40625 54.6875 
L 54.390625 54.6875 
z
" id="DejaVuSans-103"/>
      <path d="M 18.3125 70.21875 
L 18.3125 54.6875 
L 36.8125 54.6875 
L 36.8125 47.703125 
L 18.3125 47.703125 
L 18.3125 18.015625 
Q 18.3125 11.328125 20.140625 9.421875 
Q 21.96875 7.515625 27.59375 7.515625 
L 36.8125 7.515625 
L 36.8125 0 
L 27.59375 0 
Q 17.1875 0 13.234375 3.875 
Q 9.28125 7.765625 9.28125 18.015625 
L 9.28125 47.703125 
L 2.6875 47.703125 
L 2.6875 54.6875 
L 9.28125 54.6875 
L 9.28125 70.21875 
z
" id="DejaVuSans-116"/>
      <path d="M 54.890625 33.015625 
L 54.890625 0 
L 45.90625 0 
L 45.90625 32.71875 
Q 45.90625 40.484375 42.875 44.328125 
Q 39.84375 48.1875 33.796875 48.1875 
Q 26.515625 48.1875 22.3125 43.546875 
Q 18.109375 38.921875 18.109375 30.90625 
L 18.109375 0 
L 9.078125 0 
L 9.078125 75.984375 
L 18.109375 75.984375 
L 18.109375 46.1875 
Q 21.34375 51.125 25.703125 53.5625 
Q 30.078125 56 35.796875 56 
Q 45.21875 56 50.046875 50.171875 
Q 54.890625 44.34375 54.890625 33.015625 
z
" id="DejaVuSans-104"/>
      <path id="DejaVuSans-32"/>
      <path d="M 31 75.875 
Q 24.46875 64.65625 21.28125 53.65625 
Q 18.109375 42.671875 18.109375 31.390625 
Q 18.109375 20.125 21.3125 9.0625 
Q 24.515625 -2 31 -13.1875 
L 23.1875 -13.1875 
Q 15.875 -1.703125 12.234375 9.375 
Q 8.59375 20.453125 8.59375 31.390625 
Q 8.59375 42.28125 12.203125 53.3125 
Q 15.828125 64.359375 23.1875 75.875 
z
" id="DejaVuSans-40"/>
      <path d="M 48.6875 27.296875 
Q 48.6875 37.203125 44.609375 42.84375 
Q 40.53125 48.484375 33.40625 48.484375 
Q 26.265625 48.484375 22.1875 42.84375 
Q 18.109375 37.203125 18.109375 27.296875 
Q 18.109375 17.390625 22.1875 11.75 
Q 26.265625 6.109375 33.40625 6.109375 
Q 40.53125 6.109375 44.609375 11.75 
Q 48.6875 17.390625 48.6875 27.296875 
z
M 18.109375 46.390625 
Q 20.953125 51.265625 25.265625 53.625 
Q 29.59375 56 35.59375 56 
Q 45.5625 56 51.78125 48.09375 
Q 58.015625 40.1875 58.015625 27.296875 
Q 58.015625 14.40625 51.78125 6.484375 
Q 45.5625 -1.421875 35.59375 -1.421875 
Q 29.59375 -1.421875 25.265625 0.953125 
Q 20.953125 3.328125 18.109375 8.203125 
L 18.109375 0 
L 9.078125 0 
L 9.078125 75.984375 
L 18.109375 75.984375 
z
" id="DejaVuSans-98"/>
      <path d="M 18.109375 8.203125 
L 18.109375 -20.796875 
L 9.078125 -20.796875 
L 9.078125 54.6875 
L 18.109375 54.6875 
L 18.109375 46.390625 
Q 20.953125 51.265625 25.265625 53.625 
Q 29.59375 56 35.59375 56 
Q 45.5625 56 51.78125 48.09375 
Q 58.015625 40.1875 58.015625 27.296875 
Q 58.015625 14.40625 51.78125 6.484375 
Q 45.5625 -1.421875 35.59375 -1.421875 
Q 29.59375 -1.421875 25.265625 0.953125 
Q 20.953125 3.328125 18.109375 8.203125 
z
M 48.6875 27.296875 
Q 48.6875 37.203125 44.609375 42.84375 
Q 40.53125 48.484375 33.40625 48.484375 
Q 26.265625 48.484375 22.1875 42.84375 
Q 18.109375 37.203125 18.109375 27.296875 
Q 18.109375 17.390625 22.1875 11.75 
Q 26.265625 6.109375 33.40625 6.109375 
Q 40.53125 6.109375 44.609375 11.75 
Q 48.6875 17.390625 48.6875 27.296875 
z
" id="DejaVuSans-112"/>
      <path d="M 8.015625 75.875 
L 15.828125 75.875 
Q 23.140625 64.359375 26.78125 53.3125 
Q 30.421875 42.28125 30.421875 31.390625 
Q 30.421875 20.453125 26.78125 9.375 
Q 23.140625 -1.703125 15.828125 -13.1875 
L 8.015625 -13.1875 
Q 14.5 -2 17.703125 9.0625 
Q 20.90625 20.125 20.90625 31.390625 
Q 20.90625 42.671875 17.703125 53.65625 
Q 14.5 64.65625 8.015625 75.875 
z
" id="DejaVuSans-41"/>
     </defs>
     <g transform="translate(206.987344 335.860562)scale(0.1 -0.1)">
      <use xlink:href="#DejaVuSans-76"/>
      <use x="55.697266" xlink:href="#DejaVuSans-101"/>
      <use x="117.220703" xlink:href="#DejaVuSans-110"/>
      <use x="180.599609" xlink:href="#DejaVuSans-103"/>
      <use x="244.076172" xlink:href="#DejaVuSans-116"/>
      <use x="283.285156" xlink:href="#DejaVuSans-104"/>
      <use x="346.664062" xlink:href="#DejaVuSans-32"/>
      <use x="378.451172" xlink:href="#DejaVuSans-40"/>
      <use x="417.464844" xlink:href="#DejaVuSans-98"/>
      <use x="480.941406" xlink:href="#DejaVuSans-112"/>
      <use x="544.417969" xlink:href="#DejaVuSans-41"/>
     </g>
    </g>
   </g>
   <g id="matplotlib.axis_6">
    <g id="ytick_7">
     <g id="line2d_30">
      <g>
       <use style="stroke:#000000;stroke-width:0.8;" x="57.6" xlink:href="#m8c4ced38b6" y="307.584"/>
      </g>
     </g>
     <g id="text_15">
      <!-- 0 -->
      <g transform="translate(44.2375 311.383219)scale(0.1 -0.1)">
       <use xlink:href="#DejaVuSans-48"/>
      </g>
     </g>
    </g>
    <g id="ytick_8">
     <g id="line2d_31">
      <g>
       <use style="stroke:#000000;stroke-width:0.8;" x="57.6" xlink:href="#m8c4ced38b6" y="280.962151"/>
      </g>
     </g>
     <g id="text_16">
      <!-- 5 -->
      <g transform="translate(44.2375 284.76137)scale(0.1 -0.1)">
       <use xlink:href="#DejaVuSans-53"/>
      </g>
     </g>
    </g>
    <g id="ytick_9">
     <g id="line2d_32">
      <g>
       <use style="stroke:#000000;stroke-width:0.8;" x="57.6" xlink:href="#m8c4ced38b6" y="254.340303"/>
      </g>
     </g>
     <g id="text_17">
      <!-- 10 -->
      <g transform="translate(37.875 258.139521)scale(0.1 -0.1)">
       <use xlink:href="#DejaVuSans-49"/>
       <use x="63.623047" xlink:href="#DejaVuSans-48"/>
      </g>
     </g>
    </g>
    <g id="text_18">
     <!-- Count -->
     <defs>
      <path d="M 64.40625 67.28125 
L 64.40625 56.890625 
Q 59.421875 61.53125 53.78125 63.8125 
Q 48.140625 66.109375 41.796875 66.109375 
Q 29.296875 66.109375 22.65625 58.46875 
Q 16.015625 50.828125 16.015625 36.375 
Q 16.015625 21.96875 22.65625 14.328125 
Q 29.296875 6.6875 41.796875 6.6875 
Q 48.140625 6.6875 53.78125 8.984375 
Q 59.421875 11.28125 64.40625 15.921875 
L 64.40625 5.609375 
Q 59.234375 2.09375 53.4375 0.328125 
Q 47.65625 -1.421875 41.21875 -1.421875 
Q 24.65625 -1.421875 15.125 8.703125 
Q 5.609375 18.84375 5.609375 36.375 
Q 5.609375 53.953125 15.125 64.078125 
Q 24.65625 74.21875 41.21875 74.21875 
Q 47.75 74.21875 53.53125 72.484375 
Q 59.328125 70.75 64.40625 67.28125 
z
" id="DejaVuSans-67"/>
      <path d="M 30.609375 48.390625 
Q 23.390625 48.390625 19.1875 42.75 
Q 14.984375 37.109375 14.984375 27.296875 
Q 14.984375 17.484375 19.15625 11.84375 
Q 23.34375 6.203125 30.609375 6.203125 
Q 37.796875 6.203125 41.984375 11.859375 
Q 46.1875 17.53125 46.1875 27.296875 
Q 46.1875 37.015625 41.984375 42.703125 
Q 37.796875 48.390625 30.609375 48.390625 
z
M 30.609375 56 
Q 42.328125 56 49.015625 48.375 
Q 55.71875 40.765625 55.71875 27.296875 
Q 55.71875 13.875 49.015625 6.21875 
Q 42.328125 -1.421875 30.609375 -1.421875 
Q 18.84375 -1.421875 12.171875 6.21875 
Q 5.515625 13.875 5.515625 27.296875 
Q 5.515625 40.765625 12.171875 48.375 
Q 18.84375 56 30.609375 56 
z
" id="DejaVuSans-111"/>
      <path d="M 8.5 21.578125 
L 8.5 54.6875 
L 17.484375 54.6875 
L 17.484375 21.921875 
Q 17.484375 14.15625 20.5 10.265625 
Q 23.53125 6.390625 29.59375 6.390625 
Q 36.859375 6.390625 41.078125 11.03125 
Q 45.3125 15.671875 45.3125 23.6875 
L 45.3125 54.6875 
L 54.296875 54.6875 
L 54.296875 0 
L 45.3125 0 
L 45.3125 8.40625 
Q 42.046875 3.421875 37.71875 1 
Q 33.40625 -1.421875 27.6875 -1.421875 
Q 18.265625 -1.421875 13.375 4.4375 
Q 8.5 10.296875 8.5 21.578125 
z
M 31.109375 56 
z
" id="DejaVuSans-117"/>
     </defs>
     <g transform="translate(31.795312 283.29832)rotate(-90)scale(0.1 -0.1)">
      <use xlink:href="#DejaVuSans-67"/>
      <use x="69.824219" xlink:href="#DejaVuSans-111"/>
      <use x="131.005859" xlink:href="#DejaVuSans-117"/>
      <use x="194.384766" xlink:href="#DejaVuSans-110"/>
      <use x="257.763672" xlink:href="#DejaVuSans-116"/>
     </g>
    </g>
   </g>
   <g id="patch_131">
    <path d="M 57.6 307.584 
L 57.6 229.315765 
" style="fill:none;stroke:#000000;stroke-linecap:square;stroke-linejoin:miter;stroke-width:0.8;"/>
   </g>
   <g id="patch_132">
    <path d="M 414.72 307.584 
L 414.72 229.315765 
" style="fill:none;stroke:#000000;stroke-linecap:square;stroke-linejoin:miter;stroke-width:0.8;"/>
   </g>
   <g id="patch_133">
    <path d="M 57.6 307.584 
L 414.72 307.584 
" style="fill:none;stroke:#000000;stroke-linecap:square;stroke-linejoin:miter;stroke-width:0.8;"/>
   </g>
   <g id="patch_134">
    <path d="M 57.6 229.315765 
L 414.72 229.315765 
" style="fill:none;stroke:#000000;stroke-linecap:square;stroke-linejoin:miter;stroke-width:0.8;"/>
   </g>
  </g>
  <g id="text_19">
   <!-- Distribution of 5'UTR lengths in $\it{Aspergillus\ nidulans}$ -->
   <defs>
    <path d="M 19.671875 64.796875 
L 19.671875 8.109375 
L 31.59375 8.109375 
Q 46.6875 8.109375 53.6875 14.9375 
Q 60.6875 21.78125 60.6875 36.53125 
Q 60.6875 51.171875 53.6875 57.984375 
Q 46.6875 64.796875 31.59375 64.796875 
z
M 9.8125 72.90625 
L 30.078125 72.90625 
Q 51.265625 72.90625 61.171875 64.09375 
Q 71.09375 55.28125 71.09375 36.53125 
Q 71.09375 17.671875 61.125 8.828125 
Q 51.171875 0 30.078125 0 
L 9.8125 0 
z
" id="DejaVuSans-68"/>
    <path d="M 9.421875 54.6875 
L 18.40625 54.6875 
L 18.40625 0 
L 9.421875 0 
z
M 9.421875 75.984375 
L 18.40625 75.984375 
L 18.40625 64.59375 
L 9.421875 64.59375 
z
" id="DejaVuSans-105"/>
    <path d="M 44.28125 53.078125 
L 44.28125 44.578125 
Q 40.484375 46.53125 36.375 47.5 
Q 32.28125 48.484375 27.875 48.484375 
Q 21.1875 48.484375 17.84375 46.4375 
Q 14.5 44.390625 14.5 40.28125 
Q 14.5 37.15625 16.890625 35.375 
Q 19.28125 33.59375 26.515625 31.984375 
L 29.59375 31.296875 
Q 39.15625 29.25 43.1875 25.515625 
Q 47.21875 21.78125 47.21875 15.09375 
Q 47.21875 7.46875 41.1875 3.015625 
Q 35.15625 -1.421875 24.609375 -1.421875 
Q 20.21875 -1.421875 15.453125 -0.5625 
Q 10.6875 0.296875 5.421875 2 
L 5.421875 11.28125 
Q 10.40625 8.6875 15.234375 7.390625 
Q 20.0625 6.109375 24.8125 6.109375 
Q 31.15625 6.109375 34.5625 8.28125 
Q 37.984375 10.453125 37.984375 14.40625 
Q 37.984375 18.0625 35.515625 20.015625 
Q 33.0625 21.96875 24.703125 23.78125 
L 21.578125 24.515625 
Q 13.234375 26.265625 9.515625 29.90625 
Q 5.8125 33.546875 5.8125 39.890625 
Q 5.8125 47.609375 11.28125 51.796875 
Q 16.75 56 26.8125 56 
Q 31.78125 56 36.171875 55.265625 
Q 40.578125 54.546875 44.28125 53.078125 
z
" id="DejaVuSans-115"/>
    <path d="M 41.109375 46.296875 
Q 39.59375 47.171875 37.8125 47.578125 
Q 36.03125 48 33.890625 48 
Q 26.265625 48 22.1875 43.046875 
Q 18.109375 38.09375 18.109375 28.8125 
L 18.109375 0 
L 9.078125 0 
L 9.078125 54.6875 
L 18.109375 54.6875 
L 18.109375 46.1875 
Q 20.953125 51.171875 25.484375 53.578125 
Q 30.03125 56 36.53125 56 
Q 37.453125 56 38.578125 55.875 
Q 39.703125 55.765625 41.0625 55.515625 
z
" id="DejaVuSans-114"/>
    <path d="M 37.109375 75.984375 
L 37.109375 68.5 
L 28.515625 68.5 
Q 23.6875 68.5 21.796875 66.546875 
Q 19.921875 64.59375 19.921875 59.515625 
L 19.921875 54.6875 
L 34.71875 54.6875 
L 34.71875 47.703125 
L 19.921875 47.703125 
L 19.921875 0 
L 10.890625 0 
L 10.890625 47.703125 
L 2.296875 47.703125 
L 2.296875 54.6875 
L 10.890625 54.6875 
L 10.890625 58.5 
Q 10.890625 67.625 15.140625 71.796875 
Q 19.390625 75.984375 28.609375 75.984375 
z
" id="DejaVuSans-102"/>
    <path d="M 17.921875 72.90625 
L 17.921875 45.796875 
L 9.625 45.796875 
L 9.625 72.90625 
z
" id="DejaVuSans-39"/>
    <path d="M 8.6875 72.90625 
L 18.609375 72.90625 
L 18.609375 28.609375 
Q 18.609375 16.890625 22.84375 11.734375 
Q 27.09375 6.59375 36.625 6.59375 
Q 46.09375 6.59375 50.34375 11.734375 
Q 54.59375 16.890625 54.59375 28.609375 
L 54.59375 72.90625 
L 64.5 72.90625 
L 64.5 27.390625 
Q 64.5 13.140625 57.4375 5.859375 
Q 50.390625 -1.421875 36.625 -1.421875 
Q 22.796875 -1.421875 15.734375 5.859375 
Q 8.6875 13.140625 8.6875 27.390625 
z
" id="DejaVuSans-85"/>
    <path d="M -0.296875 72.90625 
L 61.375 72.90625 
L 61.375 64.59375 
L 35.5 64.59375 
L 35.5 0 
L 25.59375 0 
L 25.59375 64.59375 
L -0.296875 64.59375 
z
" id="DejaVuSans-84"/>
    <path d="M 44.390625 34.1875 
Q 47.5625 33.109375 50.5625 29.59375 
Q 53.5625 26.078125 56.59375 19.921875 
L 66.609375 0 
L 56 0 
L 46.6875 18.703125 
Q 43.0625 26.03125 39.671875 28.421875 
Q 36.28125 30.8125 30.421875 30.8125 
L 19.671875 30.8125 
L 19.671875 0 
L 9.8125 0 
L 9.8125 72.90625 
L 32.078125 72.90625 
Q 44.578125 72.90625 50.734375 67.671875 
Q 56.890625 62.453125 56.890625 51.90625 
Q 56.890625 45.015625 53.6875 40.46875 
Q 50.484375 35.9375 44.390625 34.1875 
z
M 19.671875 64.796875 
L 19.671875 38.921875 
L 32.078125 38.921875 
Q 39.203125 38.921875 42.84375 42.21875 
Q 46.484375 45.515625 46.484375 51.90625 
Q 46.484375 58.296875 42.84375 61.546875 
Q 39.203125 64.796875 32.078125 64.796875 
z
" id="DejaVuSans-82"/>
    <path d="M 9.421875 75.984375 
L 18.40625 75.984375 
L 18.40625 0 
L 9.421875 0 
z
" id="DejaVuSans-108"/>
    <path d="M 36.8125 72.90625 
L 48 72.90625 
L 61.53125 0 
L 51.21875 0 
L 48.1875 18.703125 
L 15.375 18.703125 
L 5.078125 0 
L -5.328125 0 
z
M 40.375 63.1875 
L 19.921875 26.90625 
L 46.6875 26.90625 
z
" id="DejaVuSans-Oblique-65"/>
    <path d="M 50 53.078125 
L 48.296875 44.578125 
Q 44.734375 46.53125 40.765625 47.5 
Q 36.8125 48.484375 32.625 48.484375 
Q 25.53125 48.484375 21.453125 46.0625 
Q 17.390625 43.65625 17.390625 39.5 
Q 17.390625 34.671875 26.859375 32.078125 
Q 27.59375 31.890625 27.9375 31.78125 
L 30.8125 30.90625 
Q 39.796875 28.421875 42.796875 25.6875 
Q 45.796875 22.953125 45.796875 18.21875 
Q 45.796875 9.515625 38.890625 4.046875 
Q 31.984375 -1.421875 20.796875 -1.421875 
Q 16.453125 -1.421875 11.671875 -0.578125 
Q 6.890625 0.25 1.125 2 
L 2.875 11.28125 
Q 7.8125 8.734375 12.59375 7.421875 
Q 17.390625 6.109375 21.78125 6.109375 
Q 28.375 6.109375 32.5 8.9375 
Q 36.625 11.765625 36.625 16.109375 
Q 36.625 20.796875 25.78125 23.6875 
L 24.859375 23.921875 
L 21.78125 24.703125 
Q 14.9375 26.515625 11.765625 29.46875 
Q 8.59375 32.421875 8.59375 37.015625 
Q 8.59375 45.75 15.15625 50.875 
Q 21.734375 56 33.015625 56 
Q 37.453125 56 41.671875 55.265625 
Q 45.90625 54.546875 50 53.078125 
z
" id="DejaVuSans-Oblique-115"/>
    <path d="M 49.609375 33.6875 
Q 49.609375 40.875 46.484375 44.671875 
Q 43.359375 48.484375 37.5 48.484375 
Q 33.5 48.484375 29.859375 46.4375 
Q 26.21875 44.390625 23.390625 40.484375 
Q 20.609375 36.625 18.9375 31.15625 
Q 17.28125 25.6875 17.28125 20.3125 
Q 17.28125 13.484375 20.40625 9.796875 
Q 23.53125 6.109375 29.296875 6.109375 
Q 33.546875 6.109375 37.1875 8.109375 
Q 40.828125 10.109375 43.40625 13.921875 
Q 46.1875 17.921875 47.890625 23.34375 
Q 49.609375 28.765625 49.609375 33.6875 
z
M 21.78125 46.390625 
Q 25.390625 51.125 30.296875 53.5625 
Q 35.203125 56 41.21875 56 
Q 49.609375 56 54.25 50.5 
Q 58.890625 45.015625 58.890625 35.109375 
Q 58.890625 27 56 19.65625 
Q 53.125 12.3125 47.703125 6.5 
Q 44.09375 2.640625 39.546875 0.609375 
Q 35.015625 -1.421875 29.984375 -1.421875 
Q 24.171875 -1.421875 20.21875 1 
Q 16.265625 3.421875 14.3125 8.203125 
L 8.6875 -20.796875 
L -0.296875 -20.796875 
L 14.40625 54.6875 
L 23.390625 54.6875 
z
" id="DejaVuSans-Oblique-112"/>
    <path d="M 48.09375 32.234375 
Q 48.25 33.015625 48.3125 33.84375 
Q 48.390625 34.671875 48.390625 35.5 
Q 48.390625 41.453125 44.890625 44.921875 
Q 41.40625 48.390625 35.40625 48.390625 
Q 28.71875 48.390625 23.578125 44.15625 
Q 18.453125 39.9375 15.828125 32.171875 
z
M 55.90625 25.203125 
L 14.109375 25.203125 
Q 13.8125 23.34375 13.71875 22.265625 
Q 13.625 21.1875 13.625 20.40625 
Q 13.625 13.625 17.796875 9.90625 
Q 21.96875 6.203125 29.59375 6.203125 
Q 35.453125 6.203125 40.671875 7.515625 
Q 45.90625 8.84375 50.390625 11.375 
L 48.6875 2.484375 
Q 43.84375 0.53125 38.6875 -0.4375 
Q 33.546875 -1.421875 28.21875 -1.421875 
Q 16.84375 -1.421875 10.71875 4.015625 
Q 4.59375 9.46875 4.59375 19.484375 
Q 4.59375 28.03125 7.640625 35.375 
Q 10.6875 42.71875 16.609375 48.484375 
Q 20.40625 52.09375 25.65625 54.046875 
Q 30.90625 56 36.8125 56 
Q 46.09375 56 51.578125 50.4375 
Q 57.078125 44.875 57.078125 35.5 
Q 57.078125 33.25 56.78125 30.6875 
Q 56.5 28.125 55.90625 25.203125 
z
" id="DejaVuSans-Oblique-101"/>
    <path d="M 44.578125 46.390625 
Q 43.21875 47.125 41.453125 47.515625 
Q 39.703125 47.90625 37.703125 47.90625 
Q 30.515625 47.90625 25.140625 42.453125 
Q 19.78125 37.015625 18.015625 27.875 
L 12.5 0 
L 3.515625 0 
L 14.203125 54.6875 
L 23.1875 54.6875 
L 21.484375 46.1875 
Q 25.046875 50.921875 30 53.453125 
Q 34.96875 56 40.578125 56 
Q 42.046875 56 43.453125 55.828125 
Q 44.875 55.671875 46.296875 55.28125 
z
" id="DejaVuSans-Oblique-114"/>
    <path d="M 59.625 54.6875 
L 50.296875 6.78125 
Q 47.609375 -7.125 40.015625 -13.953125 
Q 32.421875 -20.796875 19.578125 -20.796875 
Q 14.84375 -20.796875 10.78125 -20.09375 
Q 6.734375 -19.390625 3.21875 -17.921875 
L 4.890625 -9.1875 
Q 8.203125 -11.328125 11.90625 -12.34375 
Q 15.625 -13.375 19.828125 -13.375 
Q 28.375 -13.375 33.859375 -8.703125 
Q 39.359375 -4.046875 41.109375 4.6875 
L 41.890625 8.796875 
Q 38.140625 4.5 33.15625 2.25 
Q 28.171875 0 22.40625 0 
Q 14.109375 0 9.34375 5.484375 
Q 4.59375 10.984375 4.59375 20.609375 
Q 4.59375 28.171875 7.46875 35.421875 
Q 10.359375 42.671875 15.578125 48.296875 
Q 19.046875 52 23.65625 54 
Q 28.265625 56 33.296875 56 
Q 38.8125 56 42.90625 53.4375 
Q 47.015625 50.875 49.03125 46.1875 
L 50.59375 54.6875 
z
M 46.09375 34.625 
Q 46.09375 41.265625 42.96875 44.875 
Q 39.84375 48.484375 34.078125 48.484375 
Q 30.515625 48.484375 27.296875 47.0625 
Q 24.078125 45.65625 21.78125 43.109375 
Q 18.0625 38.921875 15.984375 33.234375 
Q 13.921875 27.546875 13.921875 21.484375 
Q 13.921875 14.75 17.0625 11.125 
Q 20.21875 7.515625 26.125 7.515625 
Q 34.671875 7.515625 40.375 15.25 
Q 46.09375 23 46.09375 34.625 
z
" id="DejaVuSans-Oblique-103"/>
    <path d="M 18.3125 75.984375 
L 27.296875 75.984375 
L 25.09375 64.59375 
L 16.109375 64.59375 
z
M 14.203125 54.6875 
L 23.1875 54.6875 
L 12.5 0 
L 3.515625 0 
z
" id="DejaVuSans-Oblique-105"/>
    <path d="M 18.3125 75.984375 
L 27.296875 75.984375 
L 12.5 0 
L 3.515625 0 
z
" id="DejaVuSans-Oblique-108"/>
    <path d="M 6.6875 21.6875 
L 13.09375 54.6875 
L 22.125 54.6875 
L 15.71875 22.015625 
Q 15.234375 19.625 15.015625 17.921875 
Q 14.796875 16.21875 14.796875 15.09375 
Q 14.796875 10.9375 17.328125 8.65625 
Q 19.875 6.390625 24.515625 6.390625 
Q 31.734375 6.390625 37 11.265625 
Q 42.28125 16.15625 43.890625 24.421875 
L 49.90625 54.6875 
L 58.890625 54.6875 
L 48.296875 0 
L 39.3125 0 
L 41.109375 8.59375 
Q 37.3125 3.8125 32.0625 1.1875 
Q 26.8125 -1.421875 20.90625 -1.421875 
Q 13.71875 -1.421875 9.71875 2.515625 
Q 5.71875 6.453125 5.71875 13.484375 
Q 5.71875 14.9375 5.953125 17.140625 
Q 6.203125 19.34375 6.6875 21.6875 
z
" id="DejaVuSans-Oblique-117"/>
    <path d="M 55.71875 33.015625 
L 49.3125 0 
L 40.28125 0 
L 46.6875 32.671875 
Q 47.125 34.96875 47.359375 36.71875 
Q 47.609375 38.484375 47.609375 39.5 
Q 47.609375 43.609375 45.015625 45.890625 
Q 42.4375 48.1875 37.796875 48.1875 
Q 30.5625 48.1875 25.34375 43.375 
Q 20.125 38.578125 18.5 30.328125 
L 12.5 0 
L 3.515625 0 
L 14.109375 54.6875 
L 23.09375 54.6875 
L 21.296875 46.09375 
Q 25.046875 50.828125 30.3125 53.40625 
Q 35.59375 56 41.40625 56 
Q 48.640625 56 52.609375 52.09375 
Q 56.59375 48.1875 56.59375 41.109375 
Q 56.59375 39.359375 56.375 37.359375 
Q 56.15625 35.359375 55.71875 33.015625 
z
" id="DejaVuSans-Oblique-110"/>
    <path d="M 41.796875 8.203125 
Q 38.1875 3.46875 33.25 1.015625 
Q 28.328125 -1.421875 22.3125 -1.421875 
Q 14.109375 -1.421875 9.34375 4.171875 
Q 4.59375 9.765625 4.59375 19.484375 
Q 4.59375 27.59375 7.46875 34.9375 
Q 10.359375 42.28125 15.828125 48.09375 
Q 19.4375 51.953125 23.96875 53.96875 
Q 28.515625 56 33.5 56 
Q 38.765625 56 42.796875 53.453125 
Q 46.828125 50.921875 49.03125 46.1875 
L 54.890625 75.984375 
L 63.921875 75.984375 
L 49.125 0 
L 40.09375 0 
z
M 13.921875 21.09375 
Q 13.921875 14.015625 17.109375 10.0625 
Q 20.3125 6.109375 25.984375 6.109375 
Q 30.171875 6.109375 33.765625 8.125 
Q 37.359375 10.15625 40.09375 14.109375 
Q 42.96875 18.21875 44.625 23.578125 
Q 46.296875 28.953125 46.296875 34.1875 
Q 46.296875 40.96875 43.09375 44.765625 
Q 39.890625 48.578125 34.28125 48.578125 
Q 30.03125 48.578125 26.359375 46.578125 
Q 22.703125 44.578125 20.125 40.828125 
Q 17.28125 36.765625 15.59375 31.390625 
Q 13.921875 26.03125 13.921875 21.09375 
z
" id="DejaVuSans-Oblique-100"/>
    <path d="M 53.71875 31.203125 
L 47.609375 0 
L 38.625 0 
L 40.28125 8.296875 
Q 36.328125 3.421875 31.265625 1 
Q 26.21875 -1.421875 20.015625 -1.421875 
Q 13.03125 -1.421875 8.5625 2.84375 
Q 4.109375 7.125 4.109375 13.8125 
Q 4.109375 23.390625 11.75 28.953125 
Q 19.390625 34.515625 32.8125 34.515625 
L 45.3125 34.515625 
L 45.796875 36.921875 
Q 45.90625 37.3125 45.953125 37.765625 
Q 46 38.234375 46 39.203125 
Q 46 43.5625 42.453125 45.96875 
Q 38.921875 48.390625 32.515625 48.390625 
Q 28.125 48.390625 23.5 47.265625 
Q 18.890625 46.140625 14.015625 43.890625 
L 15.578125 52.203125 
Q 20.65625 54.109375 25.515625 55.046875 
Q 30.375 56 34.90625 56 
Q 44.578125 56 49.625 51.796875 
Q 54.6875 47.609375 54.6875 39.59375 
Q 54.6875 37.984375 54.4375 35.8125 
Q 54.203125 33.640625 53.71875 31.203125 
z
M 44 27.484375 
L 35.015625 27.484375 
Q 23.96875 27.484375 18.671875 24.53125 
Q 13.375 21.578125 13.375 15.375 
Q 13.375 11.078125 16.078125 8.640625 
Q 18.796875 6.203125 23.578125 6.203125 
Q 30.90625 6.203125 36.375 11.453125 
Q 41.84375 16.703125 43.609375 25.484375 
z
" id="DejaVuSans-Oblique-97"/>
   </defs>
   <g transform="translate(74.4 16.032)scale(0.12 -0.12)">
    <use transform="translate(0 0.015625)" xlink:href="#DejaVuSans-68"/>
    <use transform="translate(77.001953 0.015625)" xlink:href="#DejaVuSans-105"/>
    <use transform="translate(104.785156 0.015625)" xlink:href="#DejaVuSans-115"/>
    <use transform="translate(156.884766 0.015625)" xlink:href="#DejaVuSans-116"/>
    <use transform="translate(196.09375 0.015625)" xlink:href="#DejaVuSans-114"/>
    <use transform="translate(237.207031 0.015625)" xlink:href="#DejaVuSans-105"/>
    <use transform="translate(264.990234 0.015625)" xlink:href="#DejaVuSans-98"/>
    <use transform="translate(328.466797 0.015625)" xlink:href="#DejaVuSans-117"/>
    <use transform="translate(391.845703 0.015625)" xlink:href="#DejaVuSans-116"/>
    <use transform="translate(431.054688 0.015625)" xlink:href="#DejaVuSans-105"/>
    <use transform="translate(458.837891 0.015625)" xlink:href="#DejaVuSans-111"/>
    <use transform="translate(520.019531 0.015625)" xlink:href="#DejaVuSans-110"/>
    <use transform="translate(583.398438 0.015625)" xlink:href="#DejaVuSans-32"/>
    <use transform="translate(615.185547 0.015625)" xlink:href="#DejaVuSans-111"/>
    <use transform="translate(676.367188 0.015625)" xlink:href="#DejaVuSans-102"/>
    <use transform="translate(711.572266 0.015625)" xlink:href="#DejaVuSans-32"/>
    <use transform="translate(743.359375 0.015625)" xlink:href="#DejaVuSans-53"/>
    <use transform="translate(806.982422 0.015625)" xlink:href="#DejaVuSans-39"/>
    <use transform="translate(834.472656 0.015625)" xlink:href="#DejaVuSans-85"/>
    <use transform="translate(907.650391 0.015625)" xlink:href="#DejaVuSans-84"/>
    <use transform="translate(968.734375 0.015625)" xlink:href="#DejaVuSans-82"/>
    <use transform="translate(1038.216797 0.015625)" xlink:href="#DejaVuSans-32"/>
    <use transform="translate(1070.003906 0.015625)" xlink:href="#DejaVuSans-108"/>
    <use transform="translate(1097.787109 0.015625)" xlink:href="#DejaVuSans-101"/>
    <use transform="translate(1159.310547 0.015625)" xlink:href="#DejaVuSans-110"/>
    <use transform="translate(1222.689453 0.015625)" xlink:href="#DejaVuSans-103"/>
    <use transform="translate(1286.166016 0.015625)" xlink:href="#DejaVuSans-116"/>
    <use transform="translate(1325.375 0.015625)" xlink:href="#DejaVuSans-104"/>
    <use transform="translate(1388.753906 0.015625)" xlink:href="#DejaVuSans-115"/>
    <use transform="translate(1440.853516 0.015625)" xlink:href="#DejaVuSans-32"/>
    <use transform="translate(1472.640625 0.015625)" xlink:href="#DejaVuSans-105"/>
    <use transform="translate(1500.423828 0.015625)" xlink:href="#DejaVuSans-110"/>
    <use transform="translate(1563.802734 0.015625)" xlink:href="#DejaVuSans-32"/>
    <use transform="translate(1595.589844 0.015625)" xlink:href="#DejaVuSans-Oblique-65"/>
    <use transform="translate(1663.998047 0.015625)" xlink:href="#DejaVuSans-Oblique-115"/>
    <use transform="translate(1716.097656 0.015625)" xlink:href="#DejaVuSans-Oblique-112"/>
    <use transform="translate(1779.574219 0.015625)" xlink:href="#DejaVuSans-Oblique-101"/>
    <use transform="translate(1841.097656 0.015625)" xlink:href="#DejaVuSans-Oblique-114"/>
    <use transform="translate(1882.210938 0.015625)" xlink:href="#DejaVuSans-Oblique-103"/>
    <use transform="translate(1945.6875 0.015625)" xlink:href="#DejaVuSans-Oblique-105"/>
    <use transform="translate(1973.470703 0.015625)" xlink:href="#DejaVuSans-Oblique-108"/>
    <use transform="translate(2001.253906 0.015625)" xlink:href="#DejaVuSans-Oblique-108"/>
    <use transform="translate(2029.037109 0.015625)" xlink:href="#DejaVuSans-Oblique-117"/>
    <use transform="translate(2092.416016 0.015625)" xlink:href="#DejaVuSans-Oblique-115"/>
    <use transform="translate(2176.986003 0.015625)" xlink:href="#DejaVuSans-Oblique-110"/>
    <use transform="translate(2240.36491 0.015625)" xlink:href="#DejaVuSans-Oblique-105"/>
    <use transform="translate(2268.148113 0.015625)" xlink:href="#DejaVuSans-Oblique-100"/>
    <use transform="translate(2331.624675 0.015625)" xlink:href="#DejaVuSans-Oblique-117"/>
    <use transform="translate(2395.003582 0.015625)" xlink:href="#DejaVuSans-Oblique-108"/>
    <use transform="translate(2422.786785 0.015625)" xlink:href="#DejaVuSans-Oblique-97"/>
    <use transform="translate(2484.066082 0.015625)" xlink:href="#DejaVuSans-Oblique-110"/>
    <use transform="translate(2547.444988 0.015625)" xlink:href="#DejaVuSans-Oblique-115"/>
   </g>
  </g>
 </g>
 <defs>
  <clipPath id="pa3caceefb0">
   <rect height="78.268235" width="357.12" x="57.6" y="41.472"/>
  </clipPath>
  <clipPath id="p7e22f13f2a">
   <rect height="78.268235" width="357.12" x="57.6" y="135.393882"/>
  </clipPath>
  <clipPath id="p1f3f641916">
   <rect height="78.268235" width="357.12" x="57.6" y="229.315765"/>
  </clipPath>
 </defs>
</svg>
